<svg width="190" height="38" viewBox="0 0 190 38" fill="none" xmlns="http://www.w3.org/2000/svg">
<path d="M115.165 9.29932C113.608 8.63488 112.962 8.49571 111.552 8.49571C109.396 8.49571 108.325 9.19735 108.325 10.6628V10.9418V21.6588V22.1161C108.325 23.9702 108.972 24.5615 110.986 24.5615C112.463 24.5615 113.373 24.3871 115.051 23.7605V27.5663C113.15 28.2653 112.276 28.4077 110.341 28.4077C106.659 28.4077 104.371 27.1834 104.033 24.9791C103.953 24.4968 103.953 23.79 103.953 22.9197V22.3623V10.1049V9.75725C103.953 6.50945 106.049 4.9375 110.492 4.9375C112.81 4.9375 113.495 5.04012 115.163 5.63337L115.165 9.29932Z" fill="white"/>
<path d="M15.8087 33.1972L14.7633 26.8484H7.58785L6.30836 33.1972H1.78235L8.17533 3.60205H13.7198L20.302 33.1972H15.8087ZM8.36966 22.6502H13.9417L11.0383 7.97093L8.36966 22.6502Z" fill="white"/>
<path d="M20.9543 11.8565V8.04688H24.8864V11.8212H27.3588V14.9606H24.921V22.9474C24.921 23.0487 24.921 23.0153 24.921 23.125L24.8858 23.2225C24.8492 24.0492 25.2776 24.5539 25.8542 24.5539C26.2473 24.5539 26.7437 24.4039 27.3203 24.0838C27.3588 24.0146 27.4621 24.0146 27.6019 23.9395V27.2277C25.8542 27.8582 25.4213 27.9672 24.3464 27.9672C21.9843 27.9672 20.953 26.9013 20.953 24.3282V23.4829V14.9933H19.4125V11.8565H20.9543Z" fill="white"/>
<path d="M29.6804 11.8565V8.04688H33.6125V11.8212H36.0798V14.9606H33.6465V22.9474C33.6465 23.0487 33.6465 23.0153 33.6465 23.125L33.6132 23.2225C33.5817 24.0492 34.0089 24.5539 34.5816 24.5539C34.9735 24.5539 35.4724 24.4039 36.0465 24.0838C36.0798 24.0146 36.1946 24.0146 36.3325 23.9395V27.2277C34.5816 27.8582 34.1532 27.9672 33.0789 27.9672C30.7136 27.9672 29.6804 26.9013 29.6804 24.3282V23.4829V14.9933H28.145V11.8565H29.6804Z" fill="white"/>
<path d="M37.5876 15.499V15.2437C37.5876 12.6463 39.3405 11.4688 43.2719 11.4688C47.6722 11.4688 49.1396 12.3551 49.1396 15.1411V15.499V24.0848V24.3721C49.1396 26.7592 47.2451 27.9033 43.558 27.9033C39.5143 27.9033 37.5876 26.7964 37.5876 24.4394V24.2598V15.499ZM41.6262 22.7289V22.947C41.6262 24.1168 42.1284 24.6177 43.3745 24.6177C44.7041 24.6177 45.2037 24.1944 45.2037 23.1561V22.947V16.4578V16.2423C45.2037 15.1411 44.7047 14.7089 43.413 14.7089C42.0893 14.7089 41.6262 15.1411 41.6262 16.2423" fill="white"/>
<path d="M54.8919 11.8564V14.3891C56.1791 12.2111 56.6755 11.8564 58.3225 11.8564H58.7919V16.4921C58.0383 15.9226 57.5374 15.7116 56.8538 15.7116C55.5717 15.7116 54.8925 16.4171 54.8925 17.7075V18.025V27.7273H50.7039V11.8564H54.8919Z" fill="white"/>
<path d="M60.4684 11.8563H64.6519V13.3539C65.6929 11.9326 66.5863 11.5029 68.4442 11.5029C71.1302 11.5029 72.1987 12.4682 72.1987 15.0297V15.3946V27.7272H68.0485V17.2783V16.8839C68.0203 15.2798 67.6945 14.8521 66.3727 14.8521C65.0079 14.8521 64.548 15.3953 64.548 16.8537V17.2469V27.7284H60.4678L60.4684 11.8563Z" fill="white"/>
<path d="M77.8522 21.3023V22.5843V22.8383C77.8163 24.0505 78.6764 24.6508 80.399 24.6508C82.2872 24.6508 83.1126 24.4039 84.8673 23.3334V27.2277C82.9734 27.8582 82.1115 28.0076 80.1355 28.0076C75.8923 28.0076 74.176 26.7948 74.176 23.7651V23.3334V15.7116V15.4987C74.176 12.7896 75.2041 11.6436 77.7137 11.6436H77.817H81.0058H81.2187C83.7905 11.6436 84.868 12.6453 84.868 15.1068V15.4211V21.301H77.8522V21.3023ZM81.1815 18.5195V16.2792V16.0676C81.1815 14.96 80.7851 14.6015 79.6448 14.6015C78.3884 14.6015 77.8163 15.0664 77.8163 16.033V16.2792V18.5195H81.1815Z" fill="white"/>
<path d="M88.4397 29.1107C89.8391 30.1118 90.6229 30.396 91.6959 30.396C93.5596 30.396 94.5601 29.3942 94.5601 27.6176V27.3297V25.8013C93.4878 27.2598 92.595 27.7645 91.1212 27.7645C88.119 27.7645 87.082 26.8288 87.082 24.1191V23.3751V11.8564H91.2315V22.3028C91.2315 23.6214 91.8036 24.3307 92.8003 24.3307C93.8463 24.3307 94.5601 23.5168 94.5601 22.2611V21.875V11.8564H98.6404V25.0118V25.48C98.6404 28.7881 98.4935 29.6847 97.7771 30.9674C96.7035 32.8215 94.5216 33.9978 92.1275 33.9978C90.0059 33.9978 89.0823 33.7066 86.8306 32.5406L88.4397 29.1107Z" fill="white"/>
<path d="M120.589 11.8564V14.3891C121.885 12.2111 122.387 11.8564 124.024 11.8564H124.494V16.4921C123.739 15.9226 123.242 15.7116 122.563 15.7116C121.274 15.7116 120.587 16.4171 120.587 17.7075V18.025V27.7273H116.407V11.8564H120.589Z" fill="white"/>
<path d="M128.814 21.3023V22.5843V22.8383C128.779 24.0505 129.641 24.6508 131.359 24.6508C133.252 24.6508 134.072 24.4039 135.83 23.3334V27.2277C133.939 27.8582 133.074 28.0076 131.107 28.0076C126.846 28.0076 125.131 26.7948 125.131 23.7651V23.3334V15.7116V15.4987C125.131 12.7896 126.171 11.6436 128.672 11.6436H128.78H131.967H132.176C134.752 11.6436 135.831 12.6453 135.831 15.1068V15.4211V21.301H128.815V21.3023H128.814ZM132.141 18.5195V16.2792V16.0676C132.141 14.96 131.754 14.6015 130.605 14.6015C129.351 14.6015 128.779 15.0664 128.779 16.033V16.2792V18.5195H132.141Z" fill="white"/>
<path d="M145.228 3.98145H149.383V27.7274H145.228V25.6918C144.443 27.4305 143.766 27.9025 142.12 27.9025C138.901 27.9025 137.789 26.9732 137.789 24.2577V23.6921V15.4219V14.9934C137.789 12.5743 138.871 11.5032 141.439 11.5032C143.404 11.5032 144.229 11.9329 145.227 13.3933L145.228 3.98145ZM141.728 22.3362V22.7294C141.728 24.0839 142.195 24.6509 143.336 24.6509C144.664 24.6509 145.228 24.1622 145.228 22.9475V22.519V17.0932V16.7437C145.228 15.5649 144.692 15.0306 143.585 15.0306C142.261 15.0306 141.728 15.4995 141.728 16.5243V16.7437L141.728 22.3362Z" fill="white"/>
<path d="M154.284 9.25404C152.997 9.25404 151.957 8.1862 151.957 6.90414C151.957 5.54896 152.96 4.51318 154.324 4.51318C155.64 4.51318 156.608 5.5169 156.608 6.90414C156.608 8.22275 155.571 9.25404 154.284 9.25404Z" fill="white"/>
<path d="M156.289 11.8564H152.316V27.7279H156.289V11.8564Z" fill="white"/>
<path d="M159.508 11.8565V8.04688H163.447V11.8212H165.911V14.9606H163.475V22.9474C163.475 23.0487 163.475 23.0153 163.475 23.125L163.447 23.2225C163.406 24.0492 163.835 24.5539 164.411 24.5539C164.806 24.5539 165.304 24.4039 165.877 24.0838C165.911 24.0146 166.018 24.0146 166.158 23.9395V27.2277C164.411 27.8582 163.985 27.9672 162.904 27.9672C160.541 27.9672 159.508 26.9013 159.508 24.3282V23.4829V14.9933H157.972V11.8565H159.508Z" fill="white"/>
<path d="M167.411 23.9835C168.987 24.4812 170.133 24.6915 171.318 24.6915C173.024 24.6915 173.634 24.163 173.634 22.6629V22.155C173.597 21.1262 173.424 21.0185 171.85 21.0185C167.922 21.0185 167.411 20.7004 167.411 18.2408V17.7079V15.8216V15.5317C167.411 12.7181 168.811 11.6118 172.421 11.6118C174.136 11.6118 174.889 11.7176 176.46 12.1788V15.2117C175.319 14.8866 174.353 14.7089 173.208 14.7089C171.566 14.7089 171.028 15.1412 171.028 16.4585C171.028 17.6302 171.318 17.8861 172.813 17.8861H173.136L174.106 17.8496H174.245C176.362 17.8496 177.249 18.7058 177.249 20.7004V20.9524V22.9054V23.2247C177.249 26.6534 175.926 27.8611 172.211 27.8611C170.347 27.8611 168.962 27.7296 167.414 27.2313V23.9835H167.411Z" fill="white"/>
<path d="M182.118 17.211C183.774 17.211 185.116 15.8686 185.116 14.2127C185.116 12.5567 183.774 11.2144 182.118 11.2144C180.462 11.2144 179.119 12.5567 179.119 14.2127C179.119 15.8686 180.462 17.211 182.118 17.211Z" stroke="white" stroke-width="0.64135" stroke-miterlimit="10"/>
<path d="M181.621 14.3234V15.7568H181.219V12.3096H182.165C182.588 12.3096 182.9 12.3904 183.102 12.5526C183.304 12.7143 183.406 12.958 183.406 13.2831C183.406 13.7391 183.174 14.0476 182.713 14.208L183.648 15.7568H183.174L182.34 14.3234H181.621ZM181.621 13.9796H182.17C182.452 13.9796 182.66 13.9232 182.792 13.811C182.925 13.6987 182.991 13.5301 182.991 13.3049C182.991 13.0773 182.923 12.9131 182.789 12.8117C182.655 12.7111 182.439 12.661 182.142 12.661H181.621V13.9796Z" fill="white"/>
</svg>
